PathFileType	4	(X/Y/Z)	outputs\dynamic_markers.trc
DataRate	CameraRate	NumFrames	NumMarkers	Units	OrigDataRate	OrigDataStartFrame	OrigNumFrames
360.000000	360.000000	4	45	m	360.000000	76	612
Frame#	Time	C7			CLAV			LANK			LASI			LBHD			LELB			LFHD			LFIN			LFRM			LHEE			LKNE			LMANK			LMELB			LMKNE			LPSI			LSHO			LTHI			LTIB			LTOE			LUPA			LWRA			LWRB			RANK			RASI			RBAK			RBHD			RELB			RFHD			RFIN			RFRM			RHEE			RKNE			RMANK			RMELB			RMKNE			RPSI			RSHO			RTHI			RTIB			RTOE			RUPA			RWRA			RWRB			STRN			T10			
		X1	Y1	Z1	X2	Y2	Z2	X3	Y3	Z3	X4	Y4	Z4	X5	Y5	Z5	X6	Y6	Z6	X7	Y7	Z7	X8	Y8	Z8	X9	Y9	Z9	X10	Y10	Z10	X11	Y11	Z11	X12	Y12	Z12	X13	Y13	Z13	X14	Y14	Z14	X15	Y15	Z15	X16	Y16	Z16	X17	Y17	Z17	X18	Y18	Z18	X19	Y19	Z19	X20	Y20	Z20	X21	Y21	Z21	X22	Y22	Z22	X23	Y23	Z23	X24	Y24	Z24	X25	Y25	Z25	X26	Y26	Z26	X27	Y27	Z27	X28	Y28	Z28	X29	Y29	Z29	X30	Y30	Z30	X31	Y31	Z31	X32	Y32	Z32	X33	Y33	Z33	X34	Y34	Z34	X35	Y35	Z35	X36	Y36	Z36	X37	Y37	Z37	X38	Y38	Z38	X39	Y39	Z39	X40	Y40	Z40	X41	Y41	Z41	X42	Y42	Z42	X43	Y43	Z43	X44	Y44	Z44	X45	Y45	Z45	

77	0.2111111111111111	0.0007161801331676543	1.637535333633423	0.03623788058757782	0.03118651360273361	1.528088331222534	0.178038477897644	0.192184180021286	0.2881162762641907	-0.003405753988772631	0.1880141347646713	1.056831359863281	0.09586884081363678	-0.02371913567185402	1.762783288955688	0.09024287760257721	0.3367230296134949	1.226003646850586	0.07835354655981064	0.1217254027724266	1.795475959777832	0.1388561576604843	0.113093689084053	1.270082712173462	0.3528779149055481	0.2502471506595612	1.252636790275574	0.2020287215709686	0.1204520687460899	0.3291525840759277	-0.02350458689033985	0.311231255531311	0.643435537815094	0.3081679046154022	0.0952286422252655	0.2909059822559357	0.04516623541712761	0.2719715535640717	1.203705072402954	0.01497039757668972	0.2032523900270462	0.6394157409667969	0.3447291553020477	0.06900134682655334	1.077954053878784	-0.1131041795015335	0.1930813193321228	1.597827076911926	0.1019118055701256	0.3119280934333801	0.7552782893180847	0.2061173021793365	0.3051233887672424	0.5737354159355164	0.2234427183866501	0.1928801387548447	0.1777509152889252	0.1256480365991592	0.3149075508117676	1.375121712684631	0.1021376252174377	0.1554025709629059	1.280287861824036	0.2601266205310822	0.145794004201889	1.198463678359985	0.2690354883670807	-0.01221003849059343	0.09745113551616669	0.1030502170324326	-0.0425369068980217	1.035100698471069	0.1438934803009033	-0.1078187227249146	1.381050825119019	-0.07830902934074402	-0.06150347739458084	1.750146627426147	0.2128793597221375	-0.3065736889839172	1.267371416091919	0.1097360998392105	0.07879815995693207	1.785728573799133	0.2710714340209961	-0.04637905955314636	1.339926481246948	0.3197876811027527	-0.1751839071512222	1.306716322898865	0.212883785367012	0.03802687674760818	0.06751538813114166	0.02757342159748077	0.0193278044462204	0.5585660338401794	0.2408789545297623	0.09975290298461914	0.05667782574892044	0.1196398138999939	-0.2541177570819855	1.230786919593811	0.03331830352544785	0.127349779009819	0.5371714234352112	0.1895914673805237	-0.0114773903042078	1.070850729942322	-0.09445778280496597	-0.1518239676952362	1.603161811828613	0.06921897083520889	-0.07809896022081375	0.8068459630012512	0.1720903813838959	-0.006828381214290857	0.3934634029865265	0.2037664949893951	0.06233241781592369	0.07455697655677795	0.2558214366436005	-0.2644118368625641	1.418207049369812	0.1149161383509636	-0.05472620576620102	1.317815661430359	0.2385862916707993	-0.1093408390879631	1.275336146354675	0.2876396775245667	0.0463574081659317	1.294388651847839	0.1787684559822083	0.01416198536753654	1.257584571838379	-0.08936455845832825	
78	0.2138888888888889	0.001576081267558038	1.637771368026733	0.03603997454047203	0.03111898712813854	1.528138399124146	0.1778769940137863	0.1943477392196655	0.2908697426319122	0.005127504002302885	0.1882422864437103	1.057970762252808	0.0968802347779274	-0.02318906411528587	1.762881755828857	0.08997806906700134	0.3361425995826721	1.224970579147339	0.08228720724582672	0.1221917420625687	1.795368552207947	0.1389168351888657	0.1113494038581848	1.272771596908569	0.3554242849349976	0.2491338104009628	1.253105878829956	0.2053612917661667	0.12282495200634	0.3315978944301605	-0.01578382775187492	0.3099764883518219	0.6485564112663269	0.3155776858329773	0.09691614657640457	0.2937727570533752	0.05291417241096497	0.2717195153236389	1.202419638633728	0.01869671791791916	0.20127272605896	0.6447577476501465	0.350715845823288	0.07063817232847214	1.077807903289795	-0.1130752041935921	0.1934608519077301	1.597497701644897	0.1025354117155075	0.3114388585090637	0.7592002749443054	0.2121835201978683	0.3047495484352112	0.5783039331436157	0.2310858070850372	0.1945250183343887	0.1814281046390533	0.1344641298055649	0.3145924806594849	1.374282479286194	0.1050480976700783	0.1539410799741745	1.281338691711426	0.2621394097805023	0.1438593715429306	1.199818015098572	0.2722113430500031	-0.01217561587691307	0.09745965898036957	0.1030213534832001	-0.04248065501451492	1.03560745716095	0.1433305591344833	-0.1065152138471603	1.38134777545929	-0.07936230301856995	-0.06117859482765198	1.750320434570312	0.2125727385282516	-0.3067958652973175	1.268360614776611	0.1095737144351006	0.0790247842669487	1.785683035850525	0.2710508406162262	-0.0477466881275177	1.342681646347046	0.3203257620334625	-0.176051139831543	1.308664560317993	0.2131834775209427	0.03806516900658607	0.06748612225055695	0.02755331620573997	0.01920529454946518	0.558759868144989	0.2405150681734085	0.09971299767494202	0.05667648464441299	0.1196710541844368	-0.2538329660892487	1.231037259101868	0.0339459665119648	0.1273688226938248	0.537278413772583	0.1894112080335617	-0.009970502927899361	1.070704579353333	-0.09494532644748688	-0.151168093085289	1.60357403755188	0.06812057644128799	-0.07826755940914154	0.8070205450057983	0.1711545139551163	-0.006871961988508701	0.3935918509960175	0.2034537196159363	0.06229865923523903	0.07459385693073273	0.2558338940143585	-0.2640198469161987	1.419120907783508	0.1141982674598694	-0.05603403598070145	1.319960832595825	0.2394613921642303	-0.1105216220021248	1.277764439582825	0.2886813580989838	0.04596275836229324	1.294386625289917	0.1784608960151672	0.01543566398322582	1.257784008979797	-0.08970803022384644	
79	0.2166666666666667	0.002436520764604211	1.638042211532593	0.03580816835165024	0.03108329325914383	1.528205037117004	0.1777208000421524	0.1963345110416412	0.293689489364624	0.01385282538831234	0.1884002238512039	1.058901190757751	0.09771820157766342	-0.02270494028925896	1.762979626655579	0.08976294100284576	0.3357292413711548	1.223893880844116	0.08643832057714462	0.1226528957486153	1.795227766036987	0.1389356106519699	0.109426349401474	1.275343656539917	0.3578021824359894	0.2477930039167404	1.253376245498657	0.2083770781755447	0.1248794719576836	0.3341330885887146	-0.007956858724355698	0.3084794282913208	0.6537548899650574	0.3228837847709656	0.09867954254150391	0.2965859472751617	0.06077905371785164	0.2713312208652496	1.200931191444397	0.02276863902807236	0.1993059664964676	0.6502161622047424	0.3567691743373871	0.07232527434825897	1.07766854763031	-0.1129417419433594	0.1938560009002686	1.597165465354919	0.1032092198729515	0.3109534382820129	0.7629752159118652	0.2181568443775177	0.3043100237846375	0.5829900503158569	0.2386018037796021	0.1959342211484909	0.1851056963205338	0.1438365429639816	0.3143724203109741	1.373305916786194	0.1080104261636734	0.1525095254182816	1.282855629920959	0.2648150026798248	0.141900047659874	1.201115131378174	0.2752748727798462	-0.01214820146560669	0.09745759516954422	0.1029907315969467	-0.04248575121164322	1.036300897598267	0.1429100781679153	-0.10512775182724	1.381701707839966	-0.08050795644521713	-0.06082428991794586	1.750430345535278	0.2122513502836227	-0.3071511387825012	1.269480466842651	0.1094658821821213	0.07922746986150742	1.785654187202454	0.2711290419101715	-0.04920878633856773	1.34557044506073	0.3209468722343445	-0.1766853332519531	1.310615181922913	0.2134315371513367	0.03814114257693291	0.06743862479925156	0.02754049003124237	0.01910192519426346	0.5589426159858704	0.2402018159627914	0.09974227845668793	0.05668904632329941	0.1196739003062248	-0.2536704540252686	1.231282711029053	0.03456423431634903	0.1273080855607986	0.5373708009719849	0.1893264204263687	-0.008508451282978058	1.07056725025177	-0.09535626322031021	-0.1505036205053329	1.604045271873474	0.06702707707881927	-0.07825519889593124	0.8071165680885315	0.1701447069644928	-0.007021191529929638	0.3937503099441528	0.2030811756849289	0.0622859038412571	0.07461906969547272	0.2558322846889496	-0.2639562487602234	1.420096516609192	0.1134074255824089	-0.05692173913121223	1.321805715560913	0.2402911186218262	-0.1117449104785919	1.280290961265564	0.2897222340106964	0.04571514949202538	1.294424772262573	0.1781614422798157	0.01680953614413738	1.258028864860535	-0.09020380675792694	
80	0.2194444444444444	0.003027488477528095	1.638190150260925	0.03574641048908234	0.03106332384049892	1.52824592590332	0.1775945574045181	0.1976573616266251	0.2956240177154541	0.01964163035154343	0.1885508745908737	1.059491753578186	0.09830769896507263	-0.02245583198964596	1.763020873069763	0.08965086936950684	0.335294634103775	1.223282814025879	0.08898277580738068	0.1229777038097382	1.795178771018982	0.1389148831367493	0.108169361948967	1.277040243148804	0.3592157959938049	0.2469702959060669	1.253653049468994	0.2104486525058746	0.1260769367218018	0.3359269499778748	-0.002605095272883773	0.3074198961257935	0.6574921607971191	0.3276123404502869	0.09978362917900085	0.2984649538993835	0.06621847301721573	0.2710738480091095	1.200058937072754	0.02534694410860538	0.1980186700820923	0.6539313793182373	0.3608281314373016	0.07351329177618027	1.077624440193176	-0.1129623800516129	0.1941621005535126	1.596941471099854	0.103613868355751	0.3106054663658142	0.7657932639122009	0.2222084701061249	0.3038834035396576	0.5859854817390442	0.2436085045337677	0.1969872117042542	0.1875402480363846	0.1501123756170273	0.3141981959342957	1.372801899909973	0.1099049150943756	0.151590883731842	1.283820629119873	0.2664316892623901	0.1405078172683716	1.202085018157959	0.2772615253925323	-0.01213240064680576	0.09747220575809479	0.1029747277498245	-0.04252152889966965	1.036824703216553	0.1425228714942932	-0.1043548882007599	1.381951093673706	-0.08132122457027435	-0.06061688438057899	1.750510334968567	0.2120805382728577	-0.3072887659072876	1.270170569419861	0.1094169244170189	0.07936450839042664	1.785645961761475	0.2712012827396393	-0.04993186891078949	1.347542405128479	0.3212721347808838	-0.1772774755954742	1.311824321746826	0.2136712968349457	0.03816869854927063	0.06742538511753082	0.0275361705571413	0.01903743855655193	0.5590716600418091	0.2400001138448715	0.09975314140319824	0.05667595192790031	0.1196894273161888	-0.2535835206508636	1.231453895568848	0.03489181399345398	0.1272891163825989	0.537590503692627	0.1891417503356934	-0.007438802160322666	1.07045042514801	-0.09559082239866257	-0.1501129269599915	1.604326009750366	0.06633415818214417	-0.07825355231761932	0.8072354793548584	0.1694418638944626	-0.007124746683984995	0.3938439190387726	0.2028570175170898	0.06226347759366035	0.07464705407619476	0.2558362185955048	-0.2638872563838959	1.420607447624207	0.1128353923559189	-0.05733323097229004	1.322951316833496	0.2408565580844879	-0.1125295758247375	1.2820645570755	0.2902472615242004	0.04547301307320595	1.294477581977844	0.1779220998287201	0.0177250187844038	1.258241415023804	-0.09053117781877518	
